<svg xmlns="http://www.w3.org/2000/svg" viewBox="0 0 494.33 494.33"><defs><style>.cls-1{fill:#2575fc;}.cls-2{fill:none;stroke:#2575fc;stroke-miterlimit:10;stroke-width:10px;}</style></defs><g id="Layer_2" data-name="Layer 2"><g id="Layer_1-2" data-name="Layer 1"><path class="cls-1" d="M218.5,224.55a29,29,0,0,0-15-6.06,32.21,32.21,0,0,0-16.17,1.89,26.05,26.05,0,0,0-12,9.56A31.2,31.2,0,0,0,170,245a27.2,27.2,0,0,0,14.29,27.22A31.26,31.26,0,0,0,202.19,276a28.26,28.26,0,0,0,26.14-21.83,29.29,29.29,0,0,0-.8-16.71A28.55,28.55,0,0,0,218.5,224.55Z"/><path class="cls-1" d="M264.14,272.26A31.28,31.28,0,0,0,282.06,276a28.29,28.29,0,0,0,26.15-21.83,29.38,29.38,0,0,0-.81-16.71,28.55,28.55,0,0,0-9-12.94,29,29,0,0,0-15-6.06,32.21,32.21,0,0,0-16.17,1.89,26.1,26.1,0,0,0-12,9.56,31.19,31.19,0,0,0-5.39,15.1,27.21,27.21,0,0,0,14.28,27.22Z"/><path class="cls-1" d="M405.91,346.92V218.2H352.85V328.74a18.18,18.18,0,0,1-18.18,18.18H147a18.18,18.18,0,0,1-18.18-18.18V218.2H72.91V346.92a53.77,53.77,0,0,0,53.76,53.77h148l84.07,64.87v-65.3a53.75,53.75,0,0,0,47.15-50.58c0-.9.07-1.83.07-2.76Z"/><path class="cls-1" d="M238.06,203.37a2.61,2.61,0,1,0,0-5.21h-7.58a2.61,2.61,0,1,0,0,5.21Z"/><path class="cls-1" d="M256.3,198.16a2.61,2.61,0,0,0,0,5.21H264a2.61,2.61,0,1,0,0-5.21Z"/><path class="cls-1" d="M168.25,171.74v17.58a14,14,0,0,0,14,14.05h30a2.61,2.61,0,0,0,0-5.21h-30a8.84,8.84,0,0,1-8.81-8.84v-80a8.84,8.84,0,0,1,8.81-8.84H296.62a8.84,8.84,0,0,1,8.81,8.84v80a8.84,8.84,0,0,1-8.81,8.84H282.28a2.61,2.61,0,0,0,0,5.21h14.34a14,14,0,0,0,14-14.05V171.74a22.61,22.61,0,0,0,0-44.86V109.3a14.06,14.06,0,0,0-14-14H242.05V77.36a14,14,0,1,0-5.21,0V95.25H182.27a14,14,0,0,0-14,14v17.58a22.61,22.61,0,0,0,0,44.86Zm142.39-39.61a17.4,17.4,0,0,1,0,34.35Zm-80-68.56a8.83,8.83,0,1,1,8.82,8.82A8.82,8.82,0,0,1,230.62,63.57Zm-62.37,68.56v34.36a17.41,17.41,0,0,1,0-34.36Z"/><path class="cls-1" d="M282.06,136.21a12.25,12.25,0,1,0-12.25,12.25A12.25,12.25,0,0,0,282.06,136.21Zm-19.29,0a7,7,0,0,1,7-7h0a7,7,0,1,1-7.05,7Z"/><path class="cls-1" d="M209.08,124a12.25,12.25,0,1,0,12.24,12.24A12.24,12.24,0,0,0,209.08,124Zm0,19.28a7,7,0,1,1,0-14.07h0a7,7,0,0,1,0,14.08Z"/><path class="cls-1" d="M261.59,176.91a2.6,2.6,0,0,0-2.6-2.61H219.91a2.61,2.61,0,0,0,0,5.21H259A2.59,2.59,0,0,0,261.59,176.91Z"/><rect class="cls-2" x="5" y="5" width="484.33" height="484.33" rx="167.85"/></g></g></svg>