<?xml version="1.0" encoding="UTF-8"?>
<svg xmlns="http://www.w3.org/2000/svg" xmlns:xlink="http://www.w3.org/1999/xlink" width="32px" height="32px" viewBox="0 0 32 32" version="1.1">
<g id="surface1">
<path style=" stroke:none;fill-rule:nonzero;fill:rgb(14.509804%,45.882353%,98.823529%);fill-opacity:1;" d="M 14.144531 14.535156 C 13.863281 14.316406 13.527344 14.179688 13.171875 14.144531 C 12.820312 14.09375 12.460938 14.136719 12.125 14.265625 C 11.8125 14.390625 11.539062 14.605469 11.351562 14.886719 C 11.152344 15.175781 11.035156 15.511719 11.003906 15.859375 C 10.917969 16.582031 11.289062 17.28125 11.929688 17.621094 C 12.28125 17.816406 12.6875 17.902344 13.089844 17.867188 C 13.90625 17.828125 14.597656 17.25 14.78125 16.453125 C 14.867188 16.09375 14.851562 15.71875 14.730469 15.371094 C 14.617188 15.042969 14.414062 14.753906 14.144531 14.535156 Z M 14.144531 14.535156 "/>
<path style=" stroke:none;fill-rule:nonzero;fill:rgb(14.509804%,45.882353%,98.823529%);fill-opacity:1;" d="M 17.097656 17.625 C 17.453125 17.820312 17.855469 17.902344 18.257812 17.867188 C 19.074219 17.824219 19.765625 17.25 19.953125 16.453125 C 20.039062 16.09375 20.019531 15.71875 19.898438 15.371094 C 19.789062 15.042969 19.585938 14.753906 19.316406 14.535156 C 19.035156 14.3125 18.699219 14.179688 18.34375 14.140625 C 17.992188 14.09375 17.632812 14.132812 17.300781 14.265625 C 16.984375 14.386719 16.714844 14.605469 16.523438 14.882812 C 16.324219 15.171875 16.203125 15.511719 16.171875 15.859375 C 16.089844 16.582031 16.457031 17.28125 17.097656 17.621094 Z M 17.097656 17.625 "/>
<path style=" stroke:none;fill-rule:nonzero;fill:rgb(14.509804%,45.882353%,98.823529%);fill-opacity:1;" d="M 26.277344 22.457031 L 26.277344 14.125 L 22.839844 14.125 L 22.839844 21.28125 C 22.839844 21.929688 22.316406 22.457031 21.664062 22.457031 L 9.515625 22.457031 C 8.867188 22.457031 8.339844 21.929688 8.339844 21.28125 L 8.339844 14.125 L 4.71875 14.125 L 4.71875 22.457031 C 4.71875 24.378906 6.277344 25.9375 8.199219 25.9375 L 17.78125 25.9375 L 23.222656 30.136719 L 23.222656 25.910156 C 24.898438 25.707031 26.1875 24.324219 26.273438 22.636719 C 26.273438 22.578125 26.28125 22.519531 26.28125 22.457031 Z M 26.277344 22.457031 "/>
<path style=" stroke:none;fill-rule:nonzero;fill:rgb(14.509804%,45.882353%,98.823529%);fill-opacity:1;" d="M 15.410156 13.164062 C 15.472656 13.167969 15.53125 13.136719 15.566406 13.082031 C 15.597656 13.03125 15.597656 12.960938 15.566406 12.910156 C 15.53125 12.855469 15.472656 12.824219 15.410156 12.828125 L 14.917969 12.828125 C 14.855469 12.824219 14.796875 12.855469 14.765625 12.910156 C 14.730469 12.960938 14.730469 13.03125 14.765625 13.082031 C 14.796875 13.136719 14.855469 13.167969 14.917969 13.164062 Z M 15.410156 13.164062 "/>
<path style=" stroke:none;fill-rule:nonzero;fill:rgb(14.509804%,45.882353%,98.823529%);fill-opacity:1;" d="M 16.589844 12.828125 C 16.503906 12.832031 16.433594 12.90625 16.433594 12.996094 C 16.433594 13.085938 16.503906 13.160156 16.589844 13.164062 L 17.089844 13.164062 C 17.152344 13.167969 17.210938 13.136719 17.246094 13.082031 C 17.277344 13.03125 17.277344 12.960938 17.246094 12.910156 C 17.210938 12.855469 17.152344 12.824219 17.089844 12.828125 Z M 16.589844 12.828125 "/>
<path style=" stroke:none;fill-rule:nonzero;fill:rgb(14.509804%,45.882353%,98.823529%);fill-opacity:1;" d="M 10.890625 11.117188 L 10.890625 12.253906 C 10.890625 12.496094 10.984375 12.726562 11.15625 12.898438 C 11.324219 13.070312 11.558594 13.164062 11.796875 13.164062 L 13.738281 13.164062 C 13.828125 13.160156 13.898438 13.085938 13.898438 12.996094 C 13.898438 12.90625 13.828125 12.832031 13.738281 12.828125 L 11.796875 12.828125 C 11.484375 12.828125 11.226562 12.570312 11.226562 12.253906 L 11.226562 7.078125 C 11.226562 6.761719 11.484375 6.503906 11.796875 6.503906 L 19.203125 6.503906 C 19.515625 6.503906 19.773438 6.761719 19.773438 7.078125 L 19.773438 12.253906 C 19.773438 12.570312 19.515625 12.828125 19.203125 12.828125 L 18.273438 12.828125 C 18.183594 12.832031 18.113281 12.90625 18.113281 12.996094 C 18.113281 13.085938 18.183594 13.160156 18.273438 13.164062 L 19.203125 13.164062 C 19.441406 13.164062 19.671875 13.070312 19.84375 12.898438 C 20.011719 12.726562 20.109375 12.496094 20.109375 12.253906 L 20.109375 11.117188 C 20.839844 11.023438 21.386719 10.402344 21.386719 9.664062 C 21.386719 8.929688 20.839844 8.304688 20.109375 8.214844 L 20.109375 7.074219 C 20.105469 6.574219 19.699219 6.171875 19.203125 6.167969 L 15.667969 6.167969 L 15.667969 5.007812 C 16.128906 4.921875 16.445312 4.5 16.402344 4.03125 C 16.359375 3.566406 15.96875 3.210938 15.5 3.210938 C 15.03125 3.210938 14.640625 3.566406 14.597656 4.03125 C 14.554688 4.5 14.871094 4.921875 15.332031 5.007812 L 15.332031 6.164062 L 11.800781 6.164062 C 11.296875 6.164062 10.894531 6.570312 10.894531 7.070312 L 10.894531 8.210938 C 10.160156 8.304688 9.613281 8.925781 9.613281 9.664062 C 9.613281 10.398438 10.160156 11.019531 10.894531 11.113281 Z M 20.109375 8.554688 C 20.652344 8.640625 21.054688 9.113281 21.054688 9.664062 C 21.054688 10.21875 20.652344 10.6875 20.109375 10.777344 Z M 14.929688 4.113281 C 14.929688 3.800781 15.1875 3.542969 15.5 3.542969 C 15.816406 3.542969 16.074219 3.800781 16.074219 4.113281 C 16.074219 4.429688 15.816406 4.6875 15.5 4.6875 C 15.347656 4.6875 15.203125 4.625 15.097656 4.519531 C 14.988281 4.414062 14.929688 4.265625 14.929688 4.113281 Z M 10.894531 8.554688 L 10.894531 10.777344 C 10.347656 10.6875 9.949219 10.21875 9.949219 9.664062 C 9.949219 9.113281 10.347656 8.644531 10.894531 8.554688 Z M 10.894531 8.554688 "/>
<path style=" stroke:none;fill-rule:nonzero;fill:rgb(14.509804%,45.882353%,98.823529%);fill-opacity:1;" d="M 18.257812 8.816406 C 18.257812 8.378906 17.902344 8.023438 17.464844 8.023438 C 17.027344 8.023438 16.671875 8.378906 16.671875 8.816406 C 16.671875 9.253906 17.027344 9.609375 17.464844 9.609375 C 17.902344 9.609375 18.257812 9.253906 18.257812 8.816406 Z M 17.011719 8.816406 C 17.011719 8.566406 17.214844 8.363281 17.464844 8.363281 C 17.714844 8.367188 17.914062 8.570312 17.914062 8.820312 C 17.910156 9.070312 17.707031 9.269531 17.460938 9.269531 C 17.210938 9.269531 17.007812 9.066406 17.007812 8.816406 Z M 17.011719 8.816406 "/>
<path style=" stroke:none;fill-rule:nonzero;fill:rgb(14.509804%,45.882353%,98.823529%);fill-opacity:1;" d="M 13.535156 8.027344 C 13.097656 8.027344 12.742188 8.382812 12.742188 8.820312 C 12.742188 9.257812 13.097656 9.613281 13.535156 9.613281 C 13.972656 9.613281 14.328125 9.257812 14.328125 8.820312 C 14.328125 8.382812 13.972656 8.027344 13.535156 8.027344 Z M 13.535156 9.273438 C 13.28125 9.273438 13.078125 9.070312 13.078125 8.820312 C 13.078125 8.566406 13.28125 8.363281 13.535156 8.363281 C 13.785156 8.363281 13.992188 8.566406 13.992188 8.820312 C 13.992188 9.070312 13.785156 9.277344 13.535156 9.277344 Z M 13.535156 9.273438 "/>
<path style=" stroke:none;fill-rule:nonzero;fill:rgb(14.509804%,45.882353%,98.823529%);fill-opacity:1;" d="M 16.933594 11.453125 C 16.933594 11.40625 16.917969 11.363281 16.882812 11.332031 C 16.851562 11.300781 16.808594 11.28125 16.765625 11.28125 L 14.234375 11.28125 C 14.148438 11.289062 14.078125 11.363281 14.078125 11.453125 C 14.078125 11.542969 14.148438 11.613281 14.234375 11.621094 L 16.765625 11.621094 C 16.8125 11.621094 16.851562 11.601562 16.886719 11.570312 C 16.917969 11.539062 16.933594 11.496094 16.933594 11.453125 Z M 16.933594 11.453125 "/>
<path style="fill:none;stroke-width:10;stroke-linecap:butt;stroke-linejoin:miter;stroke:rgb(14.509804%,45.882353%,98.823529%);stroke-opacity:1;stroke-miterlimit:10;" d="M 172.822402 5.00847 L 321.507598 5.00847 C 414.194473 5.00847 489.32153 80.135527 489.32153 172.822402 L 489.32153 321.507598 C 489.32153 414.194473 414.194473 489.32153 321.507598 489.32153 L 172.822402 489.32153 C 80.135527 489.32153 5.00847 414.194473 5.00847 321.507598 L 5.00847 172.822402 C 5.00847 80.135527 80.135527 5.00847 172.822402 5.00847 Z M 172.822402 5.00847 " transform="matrix(0.0647341,0,0,0.0647341,0,0)"/>
</g>
</svg>
